<svg xmlns="http://www.w3.org/2000/svg" viewBox="0 0 500 500"><g id="freepik--Icons--inject-62"><g id="freepik--canceled-icon--inject-62"><path d="M262.19,38.7c-1.38-.77-6.72-3.86-8.09-4.67A24.36,24.36,0,0,0,242,30.91a33,33,0,0,0-16.52,4.84,53.71,53.71,0,0,0-11.68,9.32,69.43,69.43,0,0,0-10.09,13.8c-5.07,9.08-8.2,19.23-8.2,28.61,0,11.62,4.72,21,12.92,25.72l8.09,4.67a24,24,0,0,0,12.21,3.24,33.17,33.17,0,0,0,16.58-4.9A55.19,55.19,0,0,0,256.94,107,63,63,0,0,0,267,93.21c5.13-9,8.14-19.17,8.14-28.73C275.16,53,270.5,43.6,262.19,38.7ZM215.41,92.15a45.47,45.47,0,0,1,4.17-18l20.78,19.91a41.5,41.5,0,0,1-9,7.26c-4.57,2.63-8.76,3.51-12.38,3.06C216.76,101.49,215.41,97.41,215.41,92.15Zm39.87-32.34a45.6,45.6,0,0,1-4.24,18L230.39,57.93a39.8,39.8,0,0,1,9-7.25c4.53-2.63,8.7-3.51,12.32-3.08C253.93,50.52,255.28,54.59,255.28,59.81Z" style="fill:#e0e0e0"></path><path d="M203.61,92.15c0-9.38,3.13-19.53,8.2-28.61a68.65,68.65,0,0,1,10.09-13.8,53.48,53.48,0,0,1,11.68-9.32,32.93,32.93,0,0,1,16.51-4.84,24.37,24.37,0,0,1,12.1,3.12c-1.38-.77-6.72-3.86-8.09-4.67A24.36,24.36,0,0,0,242,30.91a33,33,0,0,0-16.52,4.84,53.71,53.71,0,0,0-11.68,9.32,69.43,69.43,0,0,0-10.09,13.8c-5.07,9.08-8.2,19.23-8.2,28.61,0,11.62,4.72,21,12.92,25.72l8.09,4.67C208.33,113.15,203.61,103.77,203.61,92.15Z" style="fill:#fafafa"></path><path d="M262.19,38.7a24.37,24.37,0,0,0-12.1-3.12,32.93,32.93,0,0,0-16.51,4.84,53.48,53.48,0,0,0-11.68,9.32,68.65,68.65,0,0,0-10.09,13.8c-5.07,9.08-8.2,19.23-8.2,28.61,0,11.62,4.72,21,12.92,25.72a24,24,0,0,0,12.21,3.24,33.17,33.17,0,0,0,16.58-4.9A55.19,55.19,0,0,0,256.94,107,63,63,0,0,0,267,93.21c5.13-9,8.14-19.17,8.14-28.73C275.16,53,270.5,43.6,262.19,38.7ZM239.42,106c-6.67,3.83-12.63,4.19-17,1.65s-7-7.84-7-15.51c0-6.49,2-13.57,5.19-20.18l27.84,26.78A41.45,41.45,0,0,1,239.42,106Zm-9-48.08a39.8,39.8,0,0,1,9-7.25C246,46.85,252,46.49,256.35,49s7,7.9,7,15.51c0,6.49-1.95,13.57-5.2,20.18Z" style="fill:#f0f0f0"></path><path d="M216.53,117.87a24.4,24.4,0,0,0,7.15,2.62,25.44,25.44,0,0,0,7.59.29,34.94,34.94,0,0,0,14.23-5,60.45,60.45,0,0,0,20.7-21.92c5.11-8.77,8.43-18.71,8.63-28.89A34.72,34.72,0,0,0,272,50.09a25.22,25.22,0,0,0-9.82-11.39,25.08,25.08,0,0,1,10.2,11.21,35.37,35.37,0,0,1,3.09,15,52.92,52.92,0,0,1-2.39,15.2,67,67,0,0,1-6.15,14.11,63,63,0,0,1-9.15,12.38,54.62,54.62,0,0,1-12,9.67,35.21,35.21,0,0,1-14.52,4.91A24.29,24.29,0,0,1,216.53,117.87Z" style="fill:#fafafa"></path><path d="M263.37,64.48a43.6,43.6,0,0,1-1.72,10.3,49.61,49.61,0,0,1-1.7,4.94c-.58,1.45-1.21,2.89-1.89,4.29l-6.54-6.34-7-6.64c-2.32-2.23-4.69-4.39-7-6.59s-4.73-4.36-7.12-6.51q3.36,3.47,6.78,6.86c2.29,2.26,4.54,4.54,6.86,6.77l6.91,6.72,7,6.65.38.36.22-.47A50.71,50.71,0,0,0,260.59,80a52.34,52.34,0,0,0,1.55-5A38,38,0,0,0,263.37,64.48Z" style="fill:#fafafa"></path><path d="M203.61,92.15a46.66,46.66,0,0,1,.52-6.51L196,81a46.66,46.66,0,0,0-.52,6.51c0,11.62,4.72,21,12.92,25.72l8.09,4.67C208.33,113.15,203.61,103.77,203.61,92.15Z" style="fill:#e0e0e0"></path><polygon points="240.35 94.08 248.44 98.75 220.6 71.97 219.58 74.17 240.35 94.08" style="opacity:0.2"></polygon></g><g id="freepik--canceled-icon--inject-62"><path d="M299,231.66c-1.62-.91-7.91-4.55-9.53-5.5a28.64,28.64,0,0,0-14.24-3.68,38.77,38.77,0,0,0-19.46,5.7,63.51,63.51,0,0,0-13.76,11,81.65,81.65,0,0,0-11.89,16.27c-6,10.7-9.66,22.65-9.66,33.7,0,13.69,5.56,24.74,15.22,30.3l9.53,5.5a28.18,28.18,0,0,0,14.38,3.82c6.33,0,12.93-1.94,19.53-5.77a64.69,64.69,0,0,0,13.69-10.91,74,74,0,0,0,11.89-16.19c6-10.63,9.59-22.58,9.59-33.84C314.31,248.48,308.82,237.43,299,231.66Zm-55.11,63a53.55,53.55,0,0,1,4.91-21.18L273.3,296.9a48.58,48.58,0,0,1-10.63,8.55c-5.39,3.1-10.33,4.14-14.59,3.6C245.5,305.63,243.91,300.82,243.91,294.62Zm47-38.09c0,6.81-1.89,14.15-5,21.18l-24.33-23.39a46.61,46.61,0,0,1,10.63-8.55c5.34-3.1,10.26-4.14,14.52-3.63C289.29,245.58,290.88,250.38,290.88,256.53Z" style="fill:#45B174"></path><path d="M230,294.62c0-11.05,3.68-23,9.66-33.7a81.64,81.64,0,0,1,11.88-16.26,63.8,63.8,0,0,1,13.76-11,38.83,38.83,0,0,1,19.46-5.7A28.68,28.68,0,0,1,299,231.66c-1.62-.91-7.91-4.55-9.53-5.5a28.64,28.64,0,0,0-14.24-3.68,38.77,38.77,0,0,0-19.46,5.7,63.51,63.51,0,0,0-13.76,11,81.65,81.65,0,0,0-11.89,16.27c-6,10.7-9.66,22.65-9.66,33.7,0,13.69,5.56,24.74,15.22,30.3l9.53,5.5C235.57,319.36,230,308.31,230,294.62Z" style="fill:#fff;opacity:0.30000000000000004"></path><path d="M248.82,273.44,273.3,296.9a48.58,48.58,0,0,1-10.63,8.55c-5.39,3.1-10.33,4.14-14.59,3.6a14.11,14.11,0,0,0,4.1,3.85c5.14,3,12.16,2.57,20-1.95a48.63,48.63,0,0,0,10.64-8.54L250,270.86A20.56,20.56,0,0,0,248.82,273.44Z" style="opacity:0.2"></path><path d="M292.14,243.75c-3-1.71-6.74-2.11-10.83-1.37a19.15,19.15,0,0,1,5.4-.24c2.58,3.44,4.17,8.24,4.17,14.39,0,6.81-1.89,14.15-5,21.18l-24.33-23.39,32.73,31.48c3.82-7.79,6.12-16.13,6.12-23.77C300.41,253.07,297.21,246.74,292.14,243.75Z" style="opacity:0.2"></path><path d="M299,231.66A28.68,28.68,0,0,0,284.77,228a38.83,38.83,0,0,0-19.46,5.7,63.8,63.8,0,0,0-13.76,11,81.64,81.64,0,0,0-11.88,16.26c-6,10.7-9.66,22.65-9.66,33.7,0,13.69,5.56,24.74,15.22,30.3a28.18,28.18,0,0,0,14.38,3.82c6.33,0,12.93-1.94,19.53-5.77a64.69,64.69,0,0,0,13.69-10.91,74,74,0,0,0,11.89-16.19c6-10.63,9.59-22.58,9.59-33.84C314.31,248.48,308.82,237.43,299,231.66ZM272.19,311c-7.85,4.52-14.87,4.94-20,1.95s-8.27-9.24-8.27-18.28c0-7.64,2.29-16,6.12-23.76l32.8,31.55A48.63,48.63,0,0,1,272.19,311Zm-10.63-56.63a46.61,46.61,0,0,1,10.63-8.55c7.79-4.52,14.8-4.94,19.95-2s8.27,9.32,8.27,18.28c0,7.64-2.3,16-6.12,23.77Z" style="fill:#45B174"></path><path d="M245.23,324.92a28.59,28.59,0,0,0,8.43,3.09,29.73,29.73,0,0,0,8.93.34,41,41,0,0,0,16.77-6,71.24,71.24,0,0,0,24.39-25.82c6-10.33,9.93-22,10.16-34a41.05,41.05,0,0,0-3.32-17.47A29.68,29.68,0,0,0,299,231.66a29.54,29.54,0,0,1,12,13.21,41.64,41.64,0,0,1,3.64,17.68,62.43,62.43,0,0,1-2.81,17.9,79.52,79.52,0,0,1-7.25,16.62,74.39,74.39,0,0,1-10.78,14.59,64.76,64.76,0,0,1-14.09,11.4,41.62,41.62,0,0,1-17.11,5.78A28.68,28.68,0,0,1,245.23,324.92Z" style="fill:#45B174"></path><path d="M245.23,324.92a28.59,28.59,0,0,0,8.43,3.09,29.73,29.73,0,0,0,8.93.34,41,41,0,0,0,16.77-6,71.24,71.24,0,0,0,24.39-25.82c6-10.33,9.93-22,10.16-34a41.05,41.05,0,0,0-3.32-17.47A29.68,29.68,0,0,0,299,231.66a29.54,29.54,0,0,1,12,13.21,41.64,41.64,0,0,1,3.64,17.68,62.43,62.43,0,0,1-2.81,17.9,79.52,79.52,0,0,1-7.25,16.62,74.39,74.39,0,0,1-10.78,14.59,64.76,64.76,0,0,1-14.09,11.4,41.62,41.62,0,0,1-17.11,5.78A28.68,28.68,0,0,1,245.23,324.92Z" style="fill:#fafafa;opacity:0.30000000000000004"></path><path d="M300.41,262a51.38,51.38,0,0,1-2,12.14,59.37,59.37,0,0,1-2,5.81c-.69,1.71-1.43,3.4-2.24,5.06l-7.7-7.47-8.22-7.83c-2.73-2.62-5.53-5.17-8.29-7.76s-5.56-5.13-8.38-7.66c2.64,2.71,5.3,5.41,8,8.07s5.36,5.36,8.08,8l8.14,7.91,8.22,7.84.45.42.26-.55a59.9,59.9,0,0,0,2.44-5.72,62,62,0,0,0,1.84-5.95A44.74,44.74,0,0,0,300.41,262Z" style="fill:#45B174"></path><path d="M300.41,262a51.38,51.38,0,0,1-2,12.14,59.37,59.37,0,0,1-2,5.81c-.69,1.71-1.43,3.4-2.24,5.06l-7.7-7.47-8.22-7.83c-2.73-2.62-5.53-5.17-8.29-7.76s-5.56-5.13-8.38-7.66c2.64,2.71,5.3,5.41,8,8.07s5.36,5.36,8.08,8l8.14,7.91,8.22,7.84.45.42.26-.55a59.9,59.9,0,0,0,2.44-5.72,62,62,0,0,0,1.84-5.95A44.74,44.74,0,0,0,300.41,262Z" style="fill:#fafafa;opacity:0.30000000000000004"></path><path d="M230,294.62a54.5,54.5,0,0,1,.61-7.67l-9.53-5.5a56,56,0,0,0-.61,7.67c0,13.69,5.56,24.74,15.22,30.3l9.53,5.5C235.57,319.36,230,308.31,230,294.62Z" style="fill:#45B174"></path><path d="M230,294.62a54.5,54.5,0,0,1,.61-7.67l-9.53-5.5a56,56,0,0,0-.61,7.67c0,13.69,5.56,24.74,15.22,30.3l9.53,5.5C235.57,319.36,230,308.31,230,294.62Z" style="opacity:0.15"></path><polygon points="273.3 296.9 282.82 302.4 250.03 270.86 248.82 273.44 273.3 296.9" style="opacity:0.2"></polygon></g></g><g id="freepik--speech-bubble--inject-62"><g id="freepik--speech-bubble--inject-62"><g id="freepik--speech-bubble--inject-62"><path d="M383,88.43l4.42-7.5-3.65-9.22V66.06l9.8,5.65v5.66l-4.21,7.29a.69.69,0,0,1-.29.25h0Z" style="fill:#45B174"></path><path d="M383,88.43l4.42-7.5-3.65-9.22V66.06l9.8,5.65v5.66l-4.21,7.29a.69.69,0,0,1-.29.25h0Z" style="opacity:0.30000000000000004"></path><path d="M387.44,80.93l-4.2,7.27a.63.63,0,0,1-1.14-.1l-4.44-12.82" style="fill:#45B174"></path><path d="M373.91,26.17l31.46,18.2c.62.36,1.12,1.23,1.12,2.91V85.74c0-.25-.5.61-1.13,1l-2.93,1.67a2.48,2.48,0,0,1-2.25,0l-31.47-18.2a2.48,2.48,0,0,1-1.12-1.94V29.76a2.46,2.46,0,0,1,1.13-1.93l2.93-1.67A2.53,2.53,0,0,1,373.91,26.17Z" style="fill:#45B174"></path><path d="M373.91,26.17l31.46,18.2c.62.36,1.12,1.23,1.12,2.91V85.74c0-.25-.5.61-1.13,1l-2.93,1.67a2.48,2.48,0,0,1-2.25,0l-31.47-18.2a2.48,2.48,0,0,1-1.12-1.94V29.76a2.46,2.46,0,0,1,1.13-1.93l2.93-1.67A2.53,2.53,0,0,1,373.91,26.17Z" style="fill:#fff;opacity:0.30000000000000004"></path><path d="M400.18,88.36a2.58,2.58,0,0,0,2.25,0l2.93-1.68c.63-.35,1.13-1.21,1.13-1V47.28a3.79,3.79,0,0,0-.35-2.11l-5.17,3c.21.34.33.74.33.13V86.75C401.3,88.37,400.84,88.75,400.18,88.36Z" style="fill:#45B174"></path><path d="M400.18,88.36a2.58,2.58,0,0,0,2.25,0l2.93-1.68c.63-.35,1.13-1.21,1.13-1V47.28a3.79,3.79,0,0,0-.35-2.11l-5.17,3c.21.34.33.74.33.13V86.75C401.3,88.37,400.84,88.75,400.18,88.36Z" style="opacity:0.2"></path><path d="M368.71,29.12l31.47,18.2a2.47,2.47,0,0,1,1.12,1.94V73.43h0V87.72c0,.71-.5,1-1.12.64l-31.47-18.2a2.48,2.48,0,0,1-1.12-1.94V29.76C367.59,29.05,368.09,28.76,368.71,29.12Z" style="fill:#45B174"></path></g><path id="freepik--X--inject-62" d="M374.61,62.54l6.63-5-6.9-13.19A2.5,2.5,0,1,1,378.78,42l6.51,12.44,6-4.51a2.51,2.51,0,1,1,3,4l-6.63,5,6.61,12.63A2.5,2.5,0,0,1,393.2,75a2.43,2.43,0,0,1-1.16.29,2.49,2.49,0,0,1-2.22-1.35L383.6,62l-6,4.51a2.51,2.51,0,1,1-3-4Z" style="fill:#fafafa"></path></g></g><g id="freepik--Character--inject-62"><g id="freepik--character--inject-62"><g id="freepik--Bottom--inject-62"><path d="M363.28,378.56c-.28-4.53-2.29-48-2.29-48l22.54,15.64c-3.94,26.08-4.8,31.94-5,36.29h0a3.84,3.84,0,0,1,.1,1.12c-.12,5.17-6.42,7.87-11.35,11.25A93.37,93.37,0,0,1,354,402.71c-3.57,1.61-10.76,1.66-11.61-.48,6-4.15,13-8.67,17.76-13.43C362.43,386.52,363.62,384,363.28,378.56Z" style="fill:#ffa8a7"></path><path d="M332.16,407.65c-.31,0-.83,3.12.8,4.47,1.87,1.56,7.42,4.16,14.83,3.37s11.45-2.87,14.45-5.14,7.21-5.47,10.56-6.11c3.12-.6,6.52-1.87,7.53-2.75s.95-4.87.95-4.87Z" style="fill:#263238"></path><path d="M378.63,381.23a1.16,1.16,0,0,1,1.1.95c.21,1.1.39,4.3.85,6.11.63,2.52,1,7.66.53,9.7s-5.53,3.38-8.79,4.49a42,42,0,0,0-10.6,6c-3.52,2.62-10.88,5.21-15.7,5.2-7.35,0-12.08-1.93-13.5-4.42-1.76-3.08-.3-4.83,8.22-8.37,1.61-.67,7.29-3.7,9.23-4.8,5.24-3,9.93-7.22,12.41-12.58.29-.62.33-1.34,1-1.65a6.25,6.25,0,0,1,2.44,0,15,15,0,0,1,4.05,1.21c1.12.52,2.72,1.13,2.67,2.48a4.45,4.45,0,0,1-.35,1.38c-.11.27-.19.64.06.81s.58,0,.8-.2a20.65,20.65,0,0,0,2.33-2.52,7.71,7.71,0,0,1,1.36-1.25,16,16,0,0,0,1.46-.86C378.7,382.46,378.59,381.87,378.63,381.23Z" style="fill:#37474f"></path><path d="M339.36,401.51c10.64.84,13.87,7,14.25,10.84a27,27,0,0,1-7.59,1.37c-7.35,0-12.38-1.93-13.8-4.42C330.56,406.39,331.77,404.09,339.36,401.51Z" style="fill:#fafafa"></path><path d="M355.32,401.84a.51.51,0,0,0,.33-.11.46.46,0,0,0,.09-.68,12.93,12.93,0,0,0-9.56-3.68.49.49,0,0,0-.47.53.51.51,0,0,0,.56.44,11.92,11.92,0,0,1,8.65,3.32A.55.55,0,0,0,355.32,401.84Z" style="fill:#f0f0f0"></path><path d="M360,399.41a.53.53,0,0,0,.34-.11.46.46,0,0,0,.08-.68,12.85,12.85,0,0,0-9.56-3.68.5.5,0,0,0-.47.53.52.52,0,0,0,.57.44,11.92,11.92,0,0,1,8.65,3.31A.49.49,0,0,0,360,399.41Z" style="fill:#f0f0f0"></path><path d="M364.26,396.62a.59.59,0,0,0,.33-.11.46.46,0,0,0,.08-.68,12.89,12.89,0,0,0-9.55-3.68.48.48,0,1,0,.09,1,12,12,0,0,1,8.65,3.32A.56.56,0,0,0,364.26,396.62Z" style="fill:#f0f0f0"></path><path d="M368.05,393.62a.56.56,0,0,0,.33-.1.47.47,0,0,0,.09-.69c-2-2.43-6.57-4.08-10.44-3.74a.5.5,0,0,0-.47.53.51.51,0,0,0,.57.44c3.48-.3,7.75,1.21,9.52,3.37A.56.56,0,0,0,368.05,393.62Z" style="fill:#f0f0f0"></path><path d="M400.92,344l23.51-5c.62,14.31.25,31.67.74,45.09.1,2.53,1.43,19.61.69,24.86-1.11,7.89-11.86,7.37-12.75,2.73s-1.67-24.47-1.85-26.53c-.5-8.6-5.49-23.06-9-38.37C402.09,346,401.08,344.73,400.92,344Z" style="fill:#ffa8a7"></path><path d="M409.31,415.13c.09,4.6.77,7.67,2.52,10.43s5.25,3.73,8.88,3.07,8.31-2.59,9.52-6.51,1.13-6.64.52-10.92Z" style="fill:#263238"></path><path d="M425.12,382.45c1.48.16,1.62,6.33,2.19,12.52.6,6.64,2.75,9.46,3.31,14.91.65,6.22.14,9-2.53,12.62s-11.71,7-15.82,1.48c-3.36-4.5-3.28-9.35-2.66-15.51a138.15,138.15,0,0,0,1.06-15.72c-.07-4.65-.89-9,.42-9.44.07.68.12,1.55.2,2.22s.08,3,.91,3.09a8.53,8.53,0,0,0,.1-1.75,1.87,1.87,0,0,1,.47-1.48,5.72,5.72,0,0,1,2.33-.75c1.46-.2,2.94-.37,4.42-.43.74,0,1.48,0,2.22,0a6.19,6.19,0,0,1,1.86.3,1.26,1.26,0,0,1,.77.65,1.89,1.89,0,0,1,0,.71,4.26,4.26,0,0,0,.13,1.28c0,.19.18.41.39.38a.37.37,0,0,0,.26-.37c0-.74,0-1.29,0-2.16,0-.4,0-.95,0-1.36S425.14,382.85,425.12,382.45Z" style="fill:#37474f"></path><path d="M430.87,413.48c.07,3.85-.3,6.47-2.4,9.33-2.68,3.65-12.42,7-16.53,1.47-2.05-2.75-2.48-5.92-2.63-9.15C412.12,411.1,426.9,409.81,430.87,413.48Z" style="fill:#fafafa"></path><path d="M413.41,408.54a.65.65,0,0,0,.19,0,24.67,24.67,0,0,1,12.79-.67.58.58,0,0,0,.68-.34.47.47,0,0,0-.39-.58,25.56,25.56,0,0,0-13.52.72.44.44,0,0,0-.28.62A.56.56,0,0,0,413.41,408.54Z" style="fill:#f0f0f0"></path><path d="M426.25,403.2a.54.54,0,0,0,.48-.3.46.46,0,0,0-.32-.62c-6.53-2.18-13.21.5-13.49.61a.45.45,0,0,0-.26.64.6.6,0,0,0,.73.22c.06,0,6.55-2.62,12.63-.58A.45.45,0,0,0,426.25,403.2Z" style="fill:#f0f0f0"></path><path d="M426.07,398.84a.54.54,0,0,0,.48-.3.46.46,0,0,0-.3-.62,19.35,19.35,0,0,0-13.77.57.44.44,0,0,0-.21.64.58.58,0,0,0,.74.19,18.39,18.39,0,0,1,12.82-.52A.67.67,0,0,0,426.07,398.84Z" style="fill:#f0f0f0"></path><path d="M425.85,393.93a.54.54,0,0,0,.47-.28A.46.46,0,0,0,426,393c-6.72-2.46-13.58.56-13.87.7a.45.45,0,0,0-.23.64.6.6,0,0,0,.74.2c.07,0,6.69-2.95,12.94-.66A.5.5,0,0,0,425.85,393.93Z" style="fill:#ebebeb"></path><path d="M418.84,231.4c1.29,24.1,2.51,84,2.51,84,.39,2.91,2.8,10.2,3.49,20.72,1,15.26,1.24,42.36,1.24,42.36s-9.88,3.31-16.8.82c0,0-11.4-44.63-14-55.59-3.08-13.05-6.39-37.5-6.39-37.5l-3.53,32.33A99.05,99.05,0,0,1,385.5,339c-.78,7-5.44,38.8-5.44,38.8s-9.5,3.94-17.88-.22c0,0-2.77-53.25-3.12-59.66-1.29-23.84-.55-86.74-.17-86.52Z" style="fill:#37474f"></path><path d="M418.58,317.83c-.64-2.21-1.22-11.47-2-23.18-1.19-19-2.82-45-5.92-59.79l-1,.2c3.08,14.68,4.71,40.67,5.9,59.65.77,12.24,1.33,21.08,2,23.4,1.82,6.27,6,30.16,6.9,60.85l1-.27C424.63,348,420.41,324.12,418.58,317.83Z" style="fill:#455a64"></path><path d="M388.91,286.24,386.12,261s-8.21-.27-13.87-5.4c0,0,.74,5.16,11,8.21l3.14,21-.91,33.11Z" style="fill:#263238"></path></g><g id="freepik--Top--inject-62"><path d="M287,200.51a3.48,3.48,0,0,0,1.4.85l2.39.95a4.24,4.24,0,0,1,2.41,1.81l.92,1.23a2.5,2.5,0,0,0,1.71,1.2,9.33,9.33,0,0,0,2.3.13,10,10,0,0,0,1.66,1.51c1,.7,2.42,3.08,5.15,3.32a11.43,11.43,0,0,0,4.35-.32l-10.2-16.06-10.41,1.35-1.53,2.44C286.76,199.53,286.46,199.89,287,200.51Z" style="fill:#f28f8f"></path><path d="M318.27,201c-6.25-1.3-6.5-3-9-5.58-2.95-3.07-3.87-4.16-6.18-4.28a54.27,54.27,0,0,0-7.46.33,35,35,0,0,0-5.75,1.64c-1.05.5-4,3.16-5.7,4.26s-2.39,1.64-1.72,2.41,2.16.47,3.45.1A5.9,5.9,0,0,0,288,198.7s2.81-1,3-1.42l3.5-.4A23.06,23.06,0,0,0,298,197l0,.11a1,1,0,0,1-.57.78,10.17,10.17,0,0,1-3.2.85c-1.64.11-2.33.23-4,.28a22,22,0,0,0-4.42.24c-1,.31-1.94,1.37-.61,2.85a6,6,0,0,0,4.62,1.82c1.6.06,5-.51,6-.45a3.2,3.2,0,0,1,2.7,1.54c.92,1.22,2.16,4,5.73,5.39s5.1.83,9.09,2Z" style="fill:#ffa8a7"></path><path d="M298,197a11.08,11.08,0,0,1,1.32-3.82,6,6,0,0,0-1.8,3.87Z" style="fill:#f28f8f"></path><path d="M370.29,157.27c-8,2.68-12,4.34-17.65,19.92-4.73,12.95-8.9,26.27-8.9,26.27s-15.41-.41-25.47-2.5c-5.65,4.16-5,11.41-5,11.41s17.1,5.89,29.08,8.72C354.13,223.88,357,223,359.84,215c3.68-10.28,11.63-30.79,11.63-30.79Z" style="fill:#ffa8a7"></path><path d="M371.33,156.93c-9.51,2.06-12.85,4.63-16.21,13.24-3,7.73-8.78,24.18-8.78,24.18s8.46,8.77,24.32,7.55L376,183.53Z" style="fill:#455a64"></path><path d="M417.41,161.27a25.62,25.62,0,0,1,3.6,10.64c.28,2.42.86,8.77-.57,20.5-1.28,10.42-1.93,15.62-1.66,23.51l.6,25.23c-7.65,8.56-43.75,13.7-60.9,1.55,0,0,.13-50.93,1.72-64.58,1.17-10.08,4.14-19.37,11.13-21.19,4.75-.72,20.18-3.64,27.92-1.26Z" style="fill:#45B174"></path><path d="M417.41,161.27a25.62,25.62,0,0,1,3.6,10.64c.28,2.42.86,8.77-.57,20.5-1.28,10.42-1.93,15.62-1.66,23.51l.6,25.23c-7.65,8.56-43.75,13.7-60.9,1.55,0,0,.13-50.93,1.72-64.58,1.17-10.08,4.14-19.37,11.13-21.19,4.75-.72,20.18-3.64,27.92-1.26Z" style="fill:#fff;opacity:0.30000000000000004"></path><g id="freepik--Head--inject-62"><path d="M400.91,112.63s2.1-.74,4.31,2.6,1.07,11.23-.37,18.1a51.72,51.72,0,0,1-4.12,12.54,5.2,5.2,0,0,1-2.93,2.52l-.08-8.09.1-5.64s-3.78-4.81-4.32-8.84c-.69-5.19.33-7.36.33-7.36Z" style="fill:#37474f"></path><path d="M395.65,121.7a16,16,0,0,1-15.52,16.52c-8.85.28-15.09-6.65-15.36-15.5s5.52-16.26,14.37-16.54A16,16,0,0,1,395.65,121.7Z" style="fill:#37474f"></path><path d="M404.75,142.29c-3.46,1.5-5-.88-5-.88v16.7c-7.5,8.59-24.69,6.62-19.38-.91l0-3.81a31.55,31.55,0,0,1-5.86.17c-3.73-.46-6.16-3.32-7.41-7.29-2-6.39-1.91-16.1.15-28.71,4-3.36,17.66-4.33,26.57.9-.17,7.39,2,10.6,2.07,13.28a6.78,6.78,0,0,0,1.67,2c1.39,1.13,2.4-2,3.49-3.19s4.78-3,6.76.88S407.57,141.07,404.75,142.29Z" style="fill:#ffa8a7"></path><path d="M365.27,108.85a3.21,3.21,0,0,1,2.34-2.29c.61-.14,1.24-.09,1.86-.18,1.43-.19,1.68-1.18,2.3-2.28a4.35,4.35,0,0,1,2.46-1.9,7.61,7.61,0,0,1,3.15-.22A3.86,3.86,0,0,1,380,103.2a8,8,0,0,1,3.41-2.93,6.82,6.82,0,0,1,4.37.24,3.89,3.89,0,0,1,2.1,3.55,4.68,4.68,0,0,1,3.15-.72,6,6,0,0,1,4.05,2.49,5.15,5.15,0,0,1,.82,3.58,2.94,2.94,0,0,1,2.83.39,3.6,3.6,0,0,1,1.15,2.79c-1.16,1.86-6.06,5.07-8,5.82a1.94,1.94,0,0,1-.95,1.51,3.81,3.81,0,0,1-1.78.5,4.57,4.57,0,0,1-2-.29c-.61-.25-1.06-1-1.67-.63a20.29,20.29,0,0,1-1.72,1.29,4.83,4.83,0,0,1-1.93.52,3.77,3.77,0,0,1-3.77-2.48,4.69,4.69,0,0,1-3.32,2.16,5.25,5.25,0,0,1-3.66-.91,3.54,3.54,0,0,1-1.26-2.62,3.34,3.34,0,0,1-3.55-.35,2.91,2.91,0,0,1-.77-3.43,4.19,4.19,0,0,1-5.82-.78,1,1,0,0,1-.28-.8,2.23,2.23,0,0,0,1.92.35,2.25,2.25,0,0,0,1.46-1.3,15.29,15.29,0,0,0,.36-2.25Z" style="fill:#263238"></path><path d="M383.56,125.31l3.52,2a2.13,2.13,0,0,0-.78-2.84A2,2,0,0,0,383.56,125.31Z" style="fill:#263238"></path><path d="M368,126.06l3.88-1.27a2,2,0,0,0-2.51-1.35A2.14,2.14,0,0,0,368,126.06Z" style="fill:#263238"></path><path d="M385.21,130.48a1.66,1.66,0,1,1-1.65-1.66A1.65,1.65,0,0,1,385.21,130.48Z" style="fill:#263238"></path><path d="M371.92,129.71a1.66,1.66,0,1,1-1.65-1.66A1.51,1.51,0,0,1,371.92,129.71Z" style="fill:#263238"></path><path d="M378.17,126.46l-1.54,11.36-5.57-1.93C372.18,132.34,374.77,129.27,378.17,126.46Z" style="fill:#f28f8f"></path><path d="M396,130.78c-.5,7.93-3.14,10.26-5.87,11.08-4.36,1.31-7.4-1.41-12.5-2.33-3.39-.6-5.7.58-8.08,1.28-.46.13-1,.26-1.5.37a1.75,1.75,0,0,1-2.11-1.59,93.27,93.27,0,0,1,0-11l-.75-2.54s-1,10.67-.42,16.63c.35,3.75,1.42,7.89,4.67,9.81s7.15,1.79,14.77,1.18c8.28-.66,11.54-4.14,12.48-6.76,3.05-8.51,2-12.57,3-14.17S396,130.78,396,130.78Z" style="fill:#37474f"></path><path d="M381.59,142.51l-5,1.28a2.52,2.52,0,0,0,3.07,1.93A2.69,2.69,0,0,0,381.59,142.51Z" style="fill:#b16668"></path><path d="M381,143.35a2.58,2.58,0,0,1,.62,0,2.66,2.66,0,0,1-1.94,2.38,2.29,2.29,0,0,1-.82.05A2.35,2.35,0,0,1,381,143.35Z" style="fill:#f28f8f"></path></g></g><path d="M443.64,207.11c-3.91-12.87-8.1-23.22-11-31.31-3.86-10.61-8.88-12.54-16.8-14.18-4.61,2.66-6.82,13.65-.95,25.95,3.65,9.08,11.51,28,11.51,28-.52,2.64-2.95,19.68-5.95,26.83-1.07,2.57-3.08,3.36-4.77,4-3.16,1.23-5,5.05-7.54,6.92-2,1.46-3.36,1.81-3.24,2.4.17.77,1.46,1.45,3.61,1.25a9.92,9.92,0,0,0,4.17-1.36,11.23,11.23,0,0,1,1.88-1.19c1-.37.88.55.7,1.2a13.47,13.47,0,0,1-1.61,3.19,39,39,0,0,1-3.4,4.94,20.27,20.27,0,0,1-3.12,2.88,24.28,24.28,0,0,0-3.27,3.14c-.42.47-1.09,1.27-.95,1.95s1.25,1,1.95.92,1.3-.41,2-.48c1.4-.15,2.76.71,4.16.55a13.18,13.18,0,0,0,1.5-.38,10,10,0,0,1,2.38-.2,5.48,5.48,0,0,0,1.94-.16l1.85-.73,4.71-1.91a6.18,6.18,0,0,0,2.48-2.46,45.14,45.14,0,0,0,6.31-13.52c1.67-6,7.82-20,9.78-27.31C445.08,214.14,445.31,212.58,443.64,207.11Z" style="fill:#ffa8a7"></path><path d="M414.83,160.47c4.37,1.2,8.71,2.88,11.91,5.71s3.7,4.16,6.47,10.28c2.7,6,8.42,21.93,8.42,21.93s-5.94,9.42-19.79,8.72l-9.52-20.21S406.13,171,414.83,160.47Z" style="fill:#455a64"></path><path d="M343.74,203.46c3.55.52,6.59,2.89,6.95,7,1-5.08-3.17-8-6.37-8.72Z" style="fill:#f28f8f"></path></g></g></svg>